<?xml version="1.0" standalone="no"?>
<!DOCTYPE svg PUBLIC "-//W3C//DTD SVG 20010904//EN"
 "http://www.w3.org/TR/2001/REC-SVG-20010904/DTD/svg10.dtd">
<svg version="1.0" xmlns="http://www.w3.org/2000/svg"
 width="512.000000pt" height="512.000000pt" viewBox="0 0 512.000000 512.000000"
 preserveAspectRatio="xMidYMid meet">

<g transform="translate(0.000000,512.000000) scale(0.100000,-0.100000)"
fill="#000000" stroke="none">
<path d="M2975 4629 c-11 -6 -182 -173 -381 -371 l-360 -359 -28 40 c-45 64
-174 182 -256 233 -85 53 -196 100 -296 125 -95 24 -333 24 -428 0 -182 -46
-328 -128 -462 -261 -133 -134 -215 -279 -261 -462 -26 -105 -23 -343 6 -449
40 -150 123 -300 231 -417 l60 -66 2 -883 3 -884 27 -52 c35 -66 85 -116 151
-151 l52 -27 1605 0 1605 0 52 27 c66 35 116 85 151 151 l27 52 0 1125 0 1125
-27 52 c-51 97 -130 156 -237 178 l-54 11 -231 436 c-128 240 -240 446 -250
457 -27 30 -71 27 -143 -11 l-63 -33 -202 201 c-112 111 -213 207 -225 213
-27 14 -42 14 -68 0z m192 -341 l152 -153 -471 -250 c-259 -137 -474 -251
-478 -253 -4 -1 -17 25 -30 59 l-22 62 343 343 c189 189 346 344 349 344 3 0
74 -69 157 -152z m-1522 -153 c360 -97 612 -441 592 -810 -7 -123 -28 -206
-77 -311 -138 -288 -438 -468 -755 -451 -123 7 -206 28 -311 77 -274 131 -454
416 -454 720 0 371 266 702 627 781 104 23 281 20 378 -6z m2141 -411 l191
-359 -785 -3 c-432 -1 -786 -1 -788 0 -1 2 -4 25 -5 53 l-3 49 589 313 c325
172 595 311 600 310 6 -2 96 -165 201 -363z m460 -550 c15 -11 37 -33 48 -48
20 -26 21 -42 24 -376 l3 -349 -489 -3 -488 -3 -76 -37 c-91 -45 -147 -103
-191 -196 -29 -61 -32 -76 -32 -162 0 -86 3 -101 32 -162 44 -93 100 -151 191
-196 l76 -37 488 -3 489 -3 -3 -349 c-3 -334 -4 -350 -24 -376 -11 -15 -33
-37 -48 -48 l-27 -21 -1579 0 -1579 0 -27 21 c-15 11 -37 33 -48 48 -21 27
-21 37 -24 841 l-2 814 82 -39 c371 -173 814 -87 1095 213 109 117 198 279
230 420 l18 77 917 -2 c908 -3 917 -3 944 -24z m74 -1174 l0 -240 -458 0
c-516 0 -520 1 -591 71 -93 93 -93 245 0 338 70 69 69 69 587 70 l462 1 0
-240z"/>
<path d="M1390 3927 l0 -74 -59 -16 c-76 -21 -138 -69 -170 -132 -21 -40 -26
-63 -25 -120 1 -143 76 -218 289 -289 152 -50 205 -98 205 -185 0 -96 -70
-153 -189 -153 -116 -1 -191 63 -191 163 l0 29 -81 0 -82 0 6 -49 c7 -56 44
-136 79 -168 29 -27 121 -69 171 -78 l37 -7 0 -64 0 -64 60 0 60 0 0 64 0 63
58 12 c83 16 159 65 197 125 27 44 30 58 30 130 0 71 -4 87 -28 128 -37 64
-96 102 -238 153 -140 51 -184 76 -210 119 -40 66 -15 172 50 210 44 25 136
26 177 2 45 -27 76 -79 82 -136 l5 -50 80 0 80 0 -6 49 c-15 123 -91 218 -199
248 l-58 16 0 74 0 73 -65 0 -65 0 0 -73z"/>
<path d="M2400 2960 l0 -80 80 0 80 0 0 80 0 80 -80 0 -80 0 0 -80z"/>
<path d="M2720 2960 l0 -80 80 0 80 0 0 80 0 80 -80 0 -80 0 0 -80z"/>
<path d="M3040 2960 l0 -80 80 0 80 0 0 80 0 80 -80 0 -80 0 0 -80z"/>
<path d="M3360 2960 l0 -80 80 0 80 0 0 80 0 80 -80 0 -80 0 0 -80z"/>
<path d="M3680 2960 l0 -80 80 0 80 0 0 80 0 80 -80 0 -80 0 0 -80z"/>
<path d="M4000 2960 l0 -80 80 0 80 0 0 80 0 80 -80 0 -80 0 0 -80z"/>
<path d="M4000 2640 l0 -80 80 0 80 0 0 80 0 80 -80 0 -80 0 0 -80z"/>
<path d="M1120 2320 l0 -80 80 0 80 0 0 80 0 80 -80 0 -80 0 0 -80z"/>
<path d="M1120 2000 l0 -80 80 0 80 0 0 80 0 80 -80 0 -80 0 0 -80z"/>
<path d="M1120 1680 l0 -80 80 0 80 0 0 80 0 80 -80 0 -80 0 0 -80z"/>
<path d="M1120 1360 l0 -80 80 0 80 0 0 80 0 80 -80 0 -80 0 0 -80z"/>
<path d="M4000 1360 l0 -80 80 0 80 0 0 80 0 80 -80 0 -80 0 0 -80z"/>
<path d="M1120 1040 l0 -80 80 0 80 0 0 80 0 80 -80 0 -80 0 0 -80z"/>
<path d="M1440 1040 l0 -80 80 0 80 0 0 80 0 80 -80 0 -80 0 0 -80z"/>
<path d="M1760 1040 l0 -80 80 0 80 0 0 80 0 80 -80 0 -80 0 0 -80z"/>
<path d="M2080 1040 l0 -80 80 0 80 0 0 80 0 80 -80 0 -80 0 0 -80z"/>
<path d="M2400 1040 l0 -80 80 0 80 0 0 80 0 80 -80 0 -80 0 0 -80z"/>
<path d="M2720 1040 l0 -80 80 0 80 0 0 80 0 80 -80 0 -80 0 0 -80z"/>
<path d="M3040 1040 l0 -80 80 0 80 0 0 80 0 80 -80 0 -80 0 0 -80z"/>
<path d="M3360 1040 l0 -80 80 0 80 0 0 80 0 80 -80 0 -80 0 0 -80z"/>
<path d="M3680 1040 l0 -80 80 0 80 0 0 80 0 80 -80 0 -80 0 0 -80z"/>
<path d="M4000 1040 l0 -80 80 0 80 0 0 80 0 80 -80 0 -80 0 0 -80z"/>
<path d="M3360 2000 l0 -80 80 0 80 0 0 80 0 80 -80 0 -80 0 0 -80z"/>
</g>
</svg>
